# xmcd CD database file
#
# Track frame offsets:
#	150
#	9362
#	22627
#	35362
#	46735
#	62745
#	74357
#	88862
#	102880
#	115342
#	129415
#	141100
#
# Disc length: 2020 seconds
#
# Revision: 1
# Processed by: cddbd v1.4PL0 Copyright (c) Steve Scherf et al.
# Submitted via: CDex 1.40Beta4
#
DISCID=9307e20c
DTITLE=mixed - Body heat Volume2
DYEAR=1900
DGENRE=Blues
TTITLE0=Gladys Knight&The Pips   Every Beat of my Heart
TTITLE1=Joe Tex                            Show Me
TTITLE2=Chris Kenner                     Land of Thousand Dancess
TTITLE3=Lee Dorsey                       Holy Cow
TTITLE4=Luther Ingram                   If Loving You is Wrong
TTITLE5=Brenton Wood                 The Oogum Boogum Song
TTITLE6=Ike and Tina Turner             Drift Away
TTITLE7=Aaron Neville                   Tell it Like it is
TTITLE8=Jerry Butler                       He will Break Your Heart
TTITLE9=Joe Tex                           Hold what You`ve Got
TTITLE10=Robert Parker                  Barefootin
TTITLE11=Soul Survivers                 Expressway To Your Heart
EXTD=ID3G:   0
EXTT0=
EXTT1=
EXTT2=
EXTT3=
EXTT4=
EXTT5=
EXTT6=
EXTT7=
EXTT8=
EXTT9=
EXTT10=
EXTT11=
PLAYORDER=
